<svg width="24" height="25" viewBox="0 0 24 25" fill="none" xmlns="http://www.w3.org/2000/svg">
<path d="M8.17252 5.44386C7.39147 4.66281 6.12514 4.66281 5.34409 5.44386C4.56304 6.2249 4.56304 7.49123 5.34409 8.27228L9.1725 12.1007L5.34409 15.9291C4.56304 16.7101 4.56304 17.9765 5.34408 18.7575C6.12513 19.5386 7.39146 19.5386 8.17251 18.7575L12.0009 14.9291L15.8293 18.7575C16.6104 19.5386 17.8767 19.5386 18.6577 18.7575C19.4388 17.9765 19.4388 16.7101 18.6577 15.9291L14.8294 12.1007L18.6577 8.27228C19.4388 7.49123 19.4388 6.2249 18.6577 5.44385C17.8767 4.66281 16.6104 4.66281 15.8293 5.44386L12.0009 9.27228L8.17252 5.44386Z" fill="white" stroke="black" stroke-width="2" stroke-linecap="round" stroke-linejoin="round"/>
</svg>
