<svg width="25" height="25" viewBox="0 0 25 25" fill="none" xmlns="http://www.w3.org/2000/svg">
<g clip-path="url(#clip0_2002_97)">
<path fill-rule="evenodd" clip-rule="evenodd" d="M14.4788 9.04928C15.2129 8.6832 16.1471 8.14432 17.0824 7.406C17.2796 7.81552 17.3012 8.17288 17.1996 8.46144C17.1276 8.6648 16.9919 8.84168 16.8135 8.9824C16.6203 9.13448 16.379 9.2452 16.1123 9.30504C15.6062 9.41904 15.0153 9.35248 14.4788 9.04928ZM14.606 12.8002L15.5779 13.3615C13.5936 14.4737 13.0541 16.5388 12.4133 18.5502C11.7726 16.5388 11.2331 14.4737 9.24883 13.3615L10.2207 12.8002C10.3147 12.7646 10.395 12.7003 10.4502 12.6163C10.5054 12.5323 10.5326 12.433 10.5279 12.3326C10.4388 10.4488 10.9475 9.61576 11.6336 9.09272C11.8796 8.90536 12.1483 8.81128 12.4133 8.81128C12.6784 8.81128 12.947 8.90536 13.1932 9.09272C13.8792 9.61576 14.3879 10.4488 14.2988 12.3326C14.2941 12.433 14.3213 12.5323 14.3765 12.6163C14.4317 12.7003 14.512 12.7646 14.606 12.8002ZM12.4133 0.5C13.5367 0.53016 14.6628 0.74824 15.6402 1.17248C16.317 1.46664 16.9485 1.8552 17.5204 2.31984C17.7786 2.5296 17.9912 2.73224 18.2255 2.96552C18.8572 2.98736 19.7805 2.28552 20.2092 1.6288C19.4715 4.0472 16.1052 6.90312 13.7748 7.99592C13.7738 7.99552 13.7732 7.99496 13.7724 7.99448C13.3542 7.67512 12.8838 7.51544 12.4133 7.51544C11.9428 7.51544 11.4725 7.67512 11.0543 7.99448C11.0536 7.99488 11.0529 7.9956 11.052 7.99592C8.72139 6.90312 5.35523 4.0472 4.61755 1.6288C5.04611 2.28552 5.96939 2.98736 6.60115 2.96552C6.83547 2.73232 7.04811 2.5296 7.30627 2.31984C7.87811 1.8552 8.50963 1.46664 9.18643 1.17248C10.1639 0.74824 11.29 0.53016 12.4133 0.5ZM10.3479 9.04928C9.61379 8.6832 8.67955 8.14432 7.74435 7.406C7.54715 7.81552 7.52555 8.17288 7.62707 8.46144C7.69915 8.6648 7.83483 8.84168 8.01315 8.9824C8.20643 9.13448 8.44771 9.2452 8.71443 9.30504C9.22051 9.41904 9.81131 9.35248 10.3479 9.04928Z" fill="black"/>
<path fill-rule="evenodd" clip-rule="evenodd" d="M18.1069 6.50129C18.6217 5.98169 19.0754 5.40657 19.4402 4.89337L19.6255 5.24209C20.222 6.43545 20.5319 7.62401 20.5319 8.96161L20.5306 11.0842L20.5418 12.1845C20.585 14.8858 21.1695 17.6188 22.4935 20.1199L19.7233 17.8862L17.7633 21.0669L15.7041 19.1284L12.4135 24.4683L9.12294 19.1285L7.06382 21.067L5.10374 17.8863L2.3335 20.12C3.6575 17.6189 4.24198 14.8859 4.28526 12.1846L4.29646 11.0843L4.29518 8.96169C4.29518 7.62401 4.60502 6.43545 5.20166 5.24217L5.38686 4.89345C5.75166 5.40665 6.20526 5.98169 6.72022 6.50137L6.55942 6.83537C6.24702 7.48409 6.14358 8.20945 6.38694 8.89929C6.54382 9.34361 6.83014 9.72465 7.19926 10.0155C7.55766 10.298 7.98182 10.4884 8.4259 10.5884C8.71518 10.6535 9.0099 10.6803 9.3027 10.6712C9.23438 11.0585 9.20454 11.4602 9.20262 11.8695L6.5895 13.3787L8.60598 14.5091C8.76715 14.5994 8.92058 14.7029 9.0647 14.8186C10.7272 16.3112 11.7267 20.727 12.4136 22.8839C13.1005 20.727 14.1 16.3112 15.7625 14.8186C15.9066 14.7029 16.0601 14.5994 16.2213 14.5091L18.2377 13.3787L15.6245 11.8695C15.6226 11.4602 15.5928 11.0585 15.5245 10.6712C15.8173 10.6803 16.112 10.6535 16.4013 10.5884C16.8453 10.4884 17.2696 10.298 17.6279 10.0155C17.9969 9.72465 18.2833 9.34361 18.4401 8.89929C18.6836 8.20945 18.5801 7.48417 18.2677 6.83537L18.1069 6.50137L18.1069 6.50129Z" fill="black"/>
</g>
<defs>
<clipPath id="clip0_2002_97">
<rect width="24" height="24" fill="white" transform="translate(0.333374 0.5)"/>
</clipPath>
</defs>
</svg>
