<svg width="24" height="24" viewBox="0 0 24 24" fill="none" xmlns="http://www.w3.org/2000/svg">
<path d="M12.0001 2.58957C11.1771 2.58957 10.51 3.25669 10.51 4.07962C10.51 4.90255 11.1771 5.56967 12.0001 5.56967H12.01C12.8329 5.56967 13.5 4.90255 13.5 4.07962C13.5 3.25669 12.8329 2.58957 12.01 2.58957H12.0001ZM13.5 10.0214C13.5008 9.19848 12.8344 8.53069 12.0114 8.52987C11.1885 8.52905 10.5207 9.19549 10.5199 10.0184L10.51 19.9189C10.5092 20.7419 11.1756 21.4096 11.9986 21.4105C12.8215 21.4113 13.4893 20.7448 13.4901 19.9219L13.5 10.0214Z" fill="white" stroke="white" stroke-linecap="round" stroke-linejoin="round"/>
</svg>
