<svg width="25" height="25" viewBox="0 0 25 25" fill="none" xmlns="http://www.w3.org/2000/svg">
<g clip-path="url(#clip0_21_221)">
<path d="M13.3245 20.0405L13.3245 20.0405L13.3327 20.0375L13.343 20.0337L13.343 20.0337C14.0931 19.7551 14.6129 19.1943 14.9684 18.5974C15.322 18.0037 15.555 17.3071 15.7144 16.6156C16.0334 15.2328 16.1059 13.6522 16.1059 12.4141C16.1059 11.176 16.0334 9.59729 15.7143 8.21633C15.5548 7.52581 15.3217 6.83006 14.968 6.23708C14.6124 5.64109 14.0929 5.08175 13.344 4.80326C12.7991 4.59988 12.2248 4.64613 11.7491 4.75365C11.2553 4.86524 10.7431 5.07134 10.2459 5.32368C9.36168 5.77246 8.42241 6.42012 7.55979 7.14577H6.64979C5.47244 7.14577 4.34336 7.61353 3.51092 8.44598C2.67844 9.27846 2.21075 10.4075 2.21075 11.5848V13.2434C2.21075 14.4206 2.67845 15.5498 3.51092 16.3823L3.51094 16.3823C4.34342 17.2148 5.47251 17.6824 6.64979 17.6824H7.54867C8.3985 18.4201 9.33097 19.0684 10.2167 19.5158C10.717 19.7686 11.2324 19.9726 11.7311 20.0828C12.215 20.1897 12.7837 20.2306 13.3245 20.0405Z" fill="white" stroke="black" stroke-linecap="round" stroke-linejoin="round"/>
<path d="M21.4721 6.9025C21.0341 6.46419 20.3237 6.46395 19.8854 6.90195C19.4471 7.33994 19.4469 8.05033 19.8849 8.48863C20.9178 9.52228 21.4981 10.9238 21.4981 12.3851C21.4981 13.8464 20.9178 15.2479 19.8849 16.2816C19.4469 16.7199 19.4471 17.4302 19.8854 17.8682C20.3237 18.3062 21.0341 18.306 21.4721 17.8677C22.9255 16.4133 23.742 14.4413 23.742 12.3851C23.742 10.3289 22.9255 8.35689 21.4721 6.9025Z" fill="white" stroke="black" stroke-linecap="round" stroke-linejoin="round"/>
<path d="M19.7129 8.69362C19.2749 8.2554 18.5645 8.25527 18.1262 8.69334C17.688 9.13141 17.6879 9.84179 18.126 10.28C18.6929 10.8472 19.0115 11.6163 19.0115 12.4182C19.0115 13.2202 18.6929 13.9894 18.1259 14.5566C17.6879 14.9948 17.688 15.7052 18.1263 16.1433C18.5645 16.5813 19.2749 16.5812 19.7129 16.1429C20.7005 15.155 21.2554 13.8152 21.2554 12.4182C21.2554 11.0212 20.7005 9.68155 19.7129 8.69362Z" fill="white" stroke="black" stroke-linecap="round" stroke-linejoin="round"/>
<path d="M3.4142 2C3.02367 1.60948 2.39051 1.60948 1.99999 2C1.60946 2.39052 1.60946 3.02369 1.99999 3.41421L21 22.4142C21.3905 22.8047 22.0237 22.8047 22.4142 22.4142C22.8047 22.0237 22.8047 21.3905 22.4142 21L3.4142 2Z" fill="white" stroke="black" stroke-linecap="round"/>
</g>
<defs>
<clipPath id="clip0_21_221">
<rect width="24" height="24" fill="white" transform="translate(0.5 0.5)"/>
</clipPath>
</defs>
</svg>
