<svg width="23" height="18" viewBox="0 0 23 18" fill="none" xmlns="http://www.w3.org/2000/svg">
<path d="M11.8245 16.5405L11.8245 16.5405L11.8328 16.5375L11.843 16.5337L11.843 16.5337C12.5931 16.2551 13.113 15.6943 13.4685 15.0974C13.822 14.5037 14.055 13.807 14.2145 13.1156C14.5334 11.7328 14.606 10.1522 14.606 8.91409C14.606 7.67599 14.5334 6.09728 14.2144 4.71632C14.0549 4.02579 13.8218 3.33005 13.468 2.73707C13.1125 2.14107 12.5929 1.58173 11.8441 1.30324C11.2991 1.09987 10.7249 1.14612 10.2492 1.25363C9.75541 1.36523 9.2432 1.57132 8.74599 1.82367C7.86174 2.27244 6.92248 2.9201 6.05985 3.64575H5.14985C3.9725 3.64575 2.84342 4.11352 2.01098 4.94597C1.1785 5.77844 0.710815 6.90748 0.710815 8.08482V9.74337C0.710815 10.9206 1.17851 12.0498 2.01098 12.8823L2.011 12.8823C2.84348 13.7148 3.97257 14.1824 5.14985 14.1824H6.04873C6.89856 14.9201 7.83103 15.5683 8.71673 16.0158C9.21702 16.2686 9.73251 16.4726 10.2312 16.5828C10.7151 16.6897 11.2837 16.7306 11.8245 16.5405Z" fill="white" stroke="black" stroke-linecap="round" stroke-linejoin="round"/>
<path d="M19.9722 3.40248C19.5342 2.96418 18.8238 2.96393 18.3855 3.40193C17.9472 3.83993 17.947 4.55031 18.385 4.98861C19.4179 6.02226 19.9982 7.42383 19.9982 8.8851C19.9982 10.3464 19.4179 11.7479 18.385 12.7815C17.947 13.2198 17.9472 13.9302 18.3855 14.3682C18.8238 14.8062 19.5342 14.806 19.9722 14.3677C21.4256 12.9133 22.2421 10.9413 22.2421 8.8851C22.2421 6.82893 21.4256 4.85687 19.9722 3.40248Z" fill="white" stroke="black" stroke-linecap="round" stroke-linejoin="round"/>
<path d="M18.213 5.19361C17.775 4.75538 17.0646 4.75525 16.6264 5.19332C16.1881 5.63139 16.188 6.34177 16.6261 6.78C17.1931 7.3472 17.5116 8.11628 17.5116 8.91819C17.5116 9.72014 17.193 10.4893 16.6261 11.0566C16.188 11.4948 16.1881 12.2052 16.6264 12.6433C17.0646 13.0813 17.775 13.0812 18.2131 12.6429C19.2006 11.6549 19.7555 10.3151 19.7555 8.91819C19.7555 7.52121 19.2006 6.18153 18.213 5.19361Z" fill="white" stroke="black" stroke-linecap="round" stroke-linejoin="round"/>
</svg>
