<svg width="24" height="25" viewBox="0 0 24 25" fill="none" xmlns="http://www.w3.org/2000/svg">
<path d="M0.362483 11.6728C2.81776 10.3311 5.5585 9.21122 8.11931 8.08565C12.5249 6.24204 16.948 4.43039 21.4157 2.74376C22.285 2.45639 23.8469 2.17539 24 3.45338C23.9161 5.26243 23.5711 7.06089 23.3345 8.85935C22.734 12.8143 22.0398 16.7558 21.3629 20.6977C21.1296 22.0108 19.4717 22.6905 18.4109 21.8502C15.8614 20.1417 13.2924 18.4498 10.7755 16.7017C9.95104 15.8706 10.7156 14.677 11.4519 14.0835C13.5517 12.0305 15.7785 10.2862 17.7686 8.12706C18.3054 6.84102 16.7193 7.92485 16.1961 8.25697C13.3215 10.2223 10.5172 12.3076 7.48645 14.0349C5.93834 14.8804 4.13399 14.1578 2.58658 13.6861C1.19916 13.1162 -0.833963 12.542 0.362343 11.673L0.362483 11.6728Z" fill="black"/>
</svg>
