<svg width="24" height="25" viewBox="0 0 24 25" fill="none" xmlns="http://www.w3.org/2000/svg">
<path fill-rule="evenodd" clip-rule="evenodd" d="M1.24703 11.6974C0.413912 10.8643 0.413912 9.51351 1.24703 8.68039L4.80259 5.12484C5.6357 4.29172 6.98646 4.29172 7.81957 5.12484L11.3751 8.68039C12.2082 9.51351 12.2082 10.8643 11.3751 11.6974C10.5702 12.5023 9.28204 12.5295 8.44441 11.7791L8.44441 18.3667C8.44441 19.5449 7.48929 20.5 6.31108 20.5C5.13287 20.5 4.17775 19.5449 4.17775 18.3667L4.17775 11.7791C3.34012 12.5295 2.05197 12.5023 1.24703 11.6974Z" fill="black"/>
<path fill-rule="evenodd" clip-rule="evenodd" d="M12.6248 13.3026C11.7917 14.1357 11.7917 15.4865 12.6248 16.3196L16.1804 19.8752C17.0135 20.7083 18.3643 20.7083 19.1974 19.8752L22.7529 16.3196C23.5861 15.4865 23.5861 14.1357 22.7529 13.3026C21.948 12.4977 20.6598 12.4705 19.8222 13.2209L19.8222 6.63333C19.8222 5.45513 18.8671 4.5 17.6889 4.5C16.5107 4.5 15.5556 5.45513 15.5556 6.63333L15.5556 13.2209C14.7179 12.4705 13.4298 12.4977 12.6248 13.3026Z" fill="black"/>
</svg>
